<svg width="68" height="81" viewBox="0 0 68 81" fill="none" xmlns="http://www.w3.org/2000/svg">
<path d="M0 68.85V62.775H8.925V31.7925C8.925 26.1225 10.6781 21.0769 14.1844 16.6556C17.6906 12.2344 22.3125 9.45 28.05 8.3025V5.36625C28.05 3.81375 28.6344 2.53125 29.8031 1.51875C30.9719 0.50625 32.3708 0 34 0C35.6292 0 37.0281 0.50625 38.1969 1.51875C39.3656 2.53125 39.95 3.81375 39.95 5.36625V8.3025C45.6875 9.45 50.3271 12.2344 53.8688 16.6556C57.4104 21.0769 59.1813 26.1225 59.1813 31.7925V62.775H68V68.85H0ZM34 81C31.7333 81 29.75 80.2069 28.05 78.6206C26.35 77.0344 25.5 75.1275 25.5 72.9H42.5C42.5 75.1275 41.6677 77.0344 40.0031 78.6206C38.3385 80.2069 36.3375 81 34 81ZM15.3 62.775H52.8063V31.7925C52.8063 26.7975 51 22.545 47.3875 19.035C43.775 15.525 39.3479 13.77 34.1063 13.77C28.8646 13.77 24.4198 15.525 20.7719 19.035C17.124 22.545 15.3 26.7975 15.3 31.7925V62.775Z" fill="white" fill-opacity="0.5"/>
</svg>
