<svg width="22" height="28" viewBox="0 0 22 28" fill="none" xmlns="http://www.w3.org/2000/svg">
<path d="M5.01683 17.6665C5.29461 17.6665 5.52794 17.5665 5.71683 17.3665C5.90572 17.1665 6.00016 16.9276 6.00016 16.6498C6.00016 16.3721 5.90433 16.1387 5.71266 15.9498C5.521 15.7609 5.2835 15.6665 5.00016 15.6665C4.7335 15.6665 4.50016 15.7623 4.30016 15.954C4.10016 16.1457 4.00016 16.3832 4.00016 16.6665C4.00016 16.9332 4.10016 17.1665 4.30016 17.3665C4.50016 17.5665 4.73905 17.6665 5.01683 17.6665ZM7.01683 13.6665C7.29461 13.6665 7.52794 13.5665 7.71683 13.3665C7.90572 13.1665 8.00016 12.9276 8.00016 12.6498C8.00016 12.3721 7.90433 12.1387 7.71266 11.9498C7.521 11.7609 7.2835 11.6665 7.00016 11.6665C6.7335 11.6665 6.50016 11.7623 6.30016 11.954C6.10016 12.1457 6.00016 12.3832 6.00016 12.6665C6.00016 12.9332 6.10016 13.1665 6.30016 13.3665C6.50016 13.5665 6.73905 13.6665 7.01683 13.6665ZM7.01683 21.6665C7.29461 21.6665 7.52794 21.5665 7.71683 21.3665C7.90572 21.1665 8.00016 20.9276 8.00016 20.6498C8.00016 20.3721 7.90433 20.1387 7.71266 19.9498C7.521 19.7609 7.2835 19.6665 7.00016 19.6665C6.7335 19.6665 6.50016 19.7623 6.30016 19.954C6.10016 20.1457 6.00016 20.3832 6.00016 20.6665C6.00016 20.9332 6.10016 21.1665 6.30016 21.3665C6.50016 21.5665 6.73905 21.6665 7.01683 21.6665ZM9.01683 17.6665C9.29461 17.6665 9.52794 17.5665 9.71683 17.3665C9.90572 17.1665 10.0002 16.9276 10.0002 16.6498C10.0002 16.3721 9.90433 16.1387 9.71266 15.9498C9.521 15.7609 9.2835 15.6665 9.00016 15.6665C8.7335 15.6665 8.50016 15.7623 8.30016 15.954C8.10016 16.1457 8.00016 16.3832 8.00016 16.6665C8.00016 16.9332 8.10016 17.1665 8.30016 17.3665C8.50016 17.5665 8.73905 17.6665 9.01683 17.6665ZM9.01683 9.6665C9.29461 9.6665 9.52794 9.5665 9.71683 9.3665C9.90572 9.1665 10.0002 8.92761 10.0002 8.64984C10.0002 8.37206 9.90433 8.13873 9.71266 7.94984C9.521 7.76095 9.2835 7.6665 9.00016 7.6665C8.7335 7.6665 8.50016 7.76234 8.30016 7.954C8.10016 8.14567 8.00016 8.38317 8.00016 8.6665C8.00016 8.93317 8.10016 9.1665 8.30016 9.3665C8.50016 9.5665 8.73905 9.6665 9.01683 9.6665ZM11.0168 13.6665C11.2946 13.6665 11.5279 13.5665 11.7168 13.3665C11.9057 13.1665 12.0002 12.9276 12.0002 12.6498C12.0002 12.3721 11.9043 12.1387 11.7127 11.9498C11.521 11.7609 11.2835 11.6665 11.0002 11.6665C10.7335 11.6665 10.5002 11.7623 10.3002 11.954C10.1002 12.1457 10.0002 12.3832 10.0002 12.6665C10.0002 12.9332 10.1002 13.1665 10.3002 13.3665C10.5002 13.5665 10.7391 13.6665 11.0168 13.6665ZM11.0168 21.6665C11.2946 21.6665 11.5279 21.5665 11.7168 21.3665C11.9057 21.1665 12.0002 20.9276 12.0002 20.6498C12.0002 20.3721 11.9043 20.1387 11.7127 19.9498C11.521 19.7609 11.2835 19.6665 11.0002 19.6665C10.7335 19.6665 10.5002 19.7623 10.3002 19.954C10.1002 20.1457 10.0002 20.3832 10.0002 20.6665C10.0002 20.9332 10.1002 21.1665 10.3002 21.3665C10.5002 21.5665 10.7391 21.6665 11.0168 21.6665ZM13.0168 17.6665C13.2946 17.6665 13.5279 17.5665 13.7168 17.3665C13.9057 17.1665 14.0002 16.9276 14.0002 16.6498C14.0002 16.3721 13.9043 16.1387 13.7127 15.9498C13.521 15.7609 13.2835 15.6665 13.0002 15.6665C12.7335 15.6665 12.5002 15.7623 12.3002 15.954C12.1002 16.1457 12.0002 16.3832 12.0002 16.6665C12.0002 16.9332 12.1002 17.1665 12.3002 17.3665C12.5002 17.5665 12.7391 17.6665 13.0168 17.6665ZM13.0168 9.6665C13.2946 9.6665 13.5279 9.5665 13.7168 9.3665C13.9057 9.1665 14.0002 8.92761 14.0002 8.64984C14.0002 8.37206 13.9043 8.13873 13.7127 7.94984C13.521 7.76095 13.2835 7.6665 13.0002 7.6665C12.7335 7.6665 12.5002 7.76234 12.3002 7.954C12.1002 8.14567 12.0002 8.38317 12.0002 8.6665C12.0002 8.93317 12.1002 9.1665 12.3002 9.3665C12.5002 9.5665 12.7391 9.6665 13.0168 9.6665ZM15.0168 13.6665C15.2946 13.6665 15.5279 13.5665 15.7168 13.3665C15.9057 13.1665 16.0002 12.9276 16.0002 12.6498C16.0002 12.3721 15.9043 12.1387 15.7127 11.9498C15.521 11.7609 15.2835 11.6665 15.0002 11.6665C14.7335 11.6665 14.5002 11.7623 14.3002 11.954C14.1002 12.1457 14.0002 12.3832 14.0002 12.6665C14.0002 12.9332 14.1002 13.1665 14.3002 13.3665C14.5002 13.5665 14.7391 13.6665 15.0168 13.6665ZM15.0168 21.6665C15.2946 21.6665 15.5279 21.5665 15.7168 21.3665C15.9057 21.1665 16.0002 20.9276 16.0002 20.6498C16.0002 20.3721 15.9043 20.1387 15.7127 19.9498C15.521 19.7609 15.2835 19.6665 15.0002 19.6665C14.7335 19.6665 14.5002 19.7623 14.3002 19.954C14.1002 20.1457 14.0002 20.3832 14.0002 20.6665C14.0002 20.9332 14.1002 21.1665 14.3002 21.3665C14.5002 21.5665 14.7391 21.6665 15.0168 21.6665ZM17.0168 17.6665C17.2946 17.6665 17.5279 17.5665 17.7168 17.3665C17.9057 17.1665 18.0002 16.9276 18.0002 16.6498C18.0002 16.3721 17.9043 16.1387 17.7127 15.9498C17.521 15.7609 17.2835 15.6665 17.0002 15.6665C16.7335 15.6665 16.5002 15.7623 16.3002 15.954C16.1002 16.1457 16.0002 16.3832 16.0002 16.6665C16.0002 16.9332 16.1002 17.1665 16.3002 17.3665C16.5002 17.5665 16.7391 17.6665 17.0168 17.6665ZM11.0002 27.3332C7.95572 27.3332 5.41683 26.2887 3.3835 24.1998C1.35016 22.1109 0.333496 19.5109 0.333496 16.3998C0.333496 14.1776 1.21683 11.7609 2.9835 9.14984C4.75016 6.53873 7.42239 3.71095 11.0002 0.666504C14.5779 3.71095 17.2502 6.53873 19.0168 9.14984C20.7835 11.7609 21.6668 14.1776 21.6668 16.3998C21.6668 19.5109 20.6502 22.1109 18.6168 24.1998C16.5835 26.2887 14.0446 27.3332 11.0002 27.3332ZM11.0002 25.3332C13.4891 25.3332 15.5557 24.4832 17.2002 22.7832C18.8446 21.0832 19.6668 18.9518 19.6668 16.3891C19.6668 14.6407 18.9279 12.6498 17.4502 10.4165C15.9724 8.18317 13.8224 5.82206 11.0002 3.33317C8.17794 5.82206 6.02794 8.18317 4.55016 10.4165C3.07239 12.6498 2.3335 14.6407 2.3335 16.3891C2.3335 18.9518 3.15572 21.0832 4.80016 22.7832C6.44461 24.4832 8.51127 25.3332 11.0002 25.3332Z" fill="black"/>
</svg>
