<svg width="14" height="28" viewBox="0 0 14 28" fill="none" xmlns="http://www.w3.org/2000/svg">
<path d="M7.00016 27.3333C5.15572 27.3333 3.5835 26.6833 2.2835 25.3833C0.983496 24.0833 0.333496 22.5111 0.333496 20.6667C0.333496 19.5333 0.589052 18.4667 1.10016 17.4667C1.61127 16.4667 2.36683 15.7222 3.36683 15.2333V4.29999C3.36683 3.29072 3.72007 2.43286 4.42656 1.72639C5.13303 1.0199 5.9909 0.666656 7.00016 0.666656C8.00943 0.666656 8.8673 1.0199 9.57376 1.72639C10.2803 2.43286 10.6335 3.29072 10.6335 4.29999V15.2333C11.6335 15.7222 12.3891 16.4667 12.9002 17.4667C13.4113 18.4667 13.6668 19.5333 13.6668 20.6667C13.6668 22.5111 13.0168 24.0833 11.7168 25.3833C10.4168 26.6833 8.84461 27.3333 7.00016 27.3333ZM5.36683 12.8333H8.6335V11.0667H7.00016V9.76666H8.6335V6.86666H7.00016V5.58332H8.6335V4.29999C8.6335 3.83721 8.47657 3.4493 8.16273 3.13626C7.84889 2.82319 7.46 2.66666 6.99606 2.66666C6.53213 2.66666 6.14461 2.82319 5.8335 3.13626C5.52238 3.4493 5.36683 3.83721 5.36683 4.29999V12.8333Z" fill="#DA7417"/>
</svg>
